<svg xmlns="http://www.w3.org/2000/svg" viewBox="0 0 24 24" width="24" height="24">
  <defs>
    <clipPath id="c"><circle cx="12" cy="12" r="12"/></clipPath>
  </defs>
  <g clip-path="url(#c)">
    <circle cx="12" cy="12" r="12" fill="#003893"/>
    <!-- Nepal flag shape (double-pennant), scaled & centered in the circle -->
    <g transform="translate(3.2,2.4) scale(0.74)">
      <!-- blue border outline -->
      <path d="M0 0 H17 L4.6 5.2 L17 10.4 H0 Z" fill="none" stroke="#003893" stroke-width="1.4" stroke-linejoin="miter"/>
      <!-- crimson field -->
      <path d="M1 1 H15.6 L4.4 5.9 L15.6 10.2 H1 Z" fill="#DC143C"/>
      <!-- white moon -->
      <g fill="#fff" transform="translate(4.6,3.1)">
        <path d="M0 0 a1.5 1.5 0 1 0 0.1 0 Z M0 -1.1 a0.55 0.55 0 1 1 -0.05 0 Z"/>
        <path d="M-0.15 -2.0 l0.9 0.55 -0.45 0.8 z" />
        <path d="M0.15 -2.0 l-0.9 0.55 0.45 0.8 z" />
        <path d="M-0.05 -2.45 l0.45 0.7 -0.7 0.35 z" />
        <path d="M0.05 -2.45 l-0.45 0.7 0.7 0.35 z" />
      </g>
      <!-- white sun -->
      <g fill="#fff" transform="translate(9.0,7.4)">
        <circle r="0.95"/>
        <g>
          <rect x="-0.12" y="-2.3" width="0.24" height="1.0" rx="0.1"/>
          <rect x="-0.12" y="1.3" width="0.24" height="1.0" rx="0.1"/>
          <rect x="-2.3" y="-0.12" width="1.0" height="0.24" rx="0.1"/>
          <rect x="1.3" y="-0.12" width="1.0" height="0.24" rx="0.1"/>
          <rect x="-1.7" y="-1.7" width="0.24" height="1.0" rx="0.1" transform="rotate(45)"/>
          <rect x="0.7" y="-1.7" width="0.24" height="1.0" rx="0.1" transform="rotate(-45)"/>
          <rect x="-1.7" y="0.7" width="0.24" height="1.0" rx="0.1" transform="rotate(-45)"/>
          <rect x="0.7" y="0.7" width="0.24" height="1.0" rx="0.1" transform="rotate(45)"/>
        </g>
      </g>
    </g>
  </g>
</svg>
